<svg width="102" height="26" viewBox="0 0 102 26" xmlns="http://www.w3.org/2000/svg" xml:space="preserve">
  <path d="M0 .4v25.3h4.9V15.2h4c5.7 0 8.9-2.8 8.9-7.4C17.8 3.1 14.5.4 9 .4H0Zm4.9 3.7H8c3.6 0 4.8 1.3 4.8 3.7 0 2.2-1 3.6-4.7 3.6H5V4.1ZM34.2 0a13 13 0 0 0-13.8 13c0 7 5.1 13 13.7 13C43 26 48 19.9 48 13c0-7.2-5.5-13-13.8-13Zm0 4.5C40 4.5 43 8.8 43 13c0 5.6-4 8.6-8.9 8.6a8.4 8.4 0 0 1-8.7-8.5c0-5 3.3-8.6 8.8-8.6ZM52 .4v14.4C52 22 56.3 26 63.8 26c7.6 0 11.6-4.1 11.6-11.3V.4h-5v14.2c0 5-2.2 7.2-6.6 7.2-4.5 0-6.8-2.3-6.8-7.2V.4h-4.8Zm28.5 0v25.3h4.8V15h1.5c2 0 3.4.7 5.7 4.7l3.4 6h5.6l-4-6.6c-2-3.4-2.8-4.2-4.3-5.1a6.4 6.4 0 0 0 4.1-6.3c0-4-2.8-7.3-8.3-7.3h-8.5Zm4.8 3.7h3c2.7 0 4 1.4 4 3.6 0 3-2 3.7-4.5 3.7h-2.5V4.1Z"/>
</svg>
