<svg viewBox="0 0 385 52" xmlns="http://www.w3.org/2000/svg">
  <path d="M.1.7v50.5h12.5V18.9l14.3 17.7H28l14.2-17.7v32.3H55V.7H43.5L27.6 20.2 11.8.7H0ZM82.4.6l-22 50.6h13l4.9-11.6H100l4.9 11.6h13L95.7.6H82.4ZM89.1 13l7.5 18.4h-15L89.1 13ZM167 3.9A49.4 49.4 0 0 0 147.5 0C128.7 0 119 12.2 119 26c0 15.1 10.7 25.9 28 25.9a53 53 0 0 0 21.1-4.3V24.2h-19v9h7.6v7.4a22 22 0 0 1-7.7 1.2c-10.6 0-17-7-17-15.7 0-7.5 5.2-16.3 18.1-16.3 6.1 0 11.5 1.3 17 4.6V3.9ZM178.8.7v50.5h12.6V19.8l28.2 31.4H231V.7h-12.6v31.5L190 .7h-11.2Zm63 0v50.5H277v-9h-22.5V29.9h20.9v-9h-20.9V9.6h21.9v-9h-34.6Zm44.4 0v50.5h35.6V40.7H299V.7h-12.8Zm43 0v50.5H365V40.7h-23V.7h-12.7Zm43.1 0H385v50.5h-12.7z"/>
</svg>
